HIERARCHY
ROOT Hips
{
	OFFSET 0.00 0.00 0.00
	CHANNELS 6 Xposition Yposition Zposition Xrotation Yrotation Zrotation
	JOINT Spine
	{
		OFFSET 0.00000 7.50895 0.00000
		CHANNELS 3 Xrotation Yrotation Zrotation
		JOINT Head
		{
			OFFSET 0.00000 13.86115 0.00000
			CHANNELS 3 Xrotation Yrotation Zrotation
			End Site
			{
				OFFSET 0.00000 4.52755 0.00000
			}
		}
		JOINT LeftShoulder
		{
			OFFSET 0.00000 8.20478 0.00000
			CHANNELS 3 Xrotation Yrotation Zrotation
			JOINT LeftArm
			{
				OFFSET 6.63596 0.00000 0.00000
				CHANNELS 3 Xrotation Yrotation Zrotation
				JOINT LeftForeArm
				{
					OFFSET 10.27422 0.00000 0.00000
					CHANNELS 3 Yrotation Zrotation Xrotation
					JOINT LeftHand
					{
						OFFSET 8.52215 0.00000 0.00000
						CHANNELS 3 Xrotation Yrotation Zrotation
						JOINT LeftHandThumb1
						{
							OFFSET 0.00000 0.00000 0.00000
							CHANNELS 3 Xrotation Zrotation Yrotation
							End Site
							{
								OFFSET 0.00000 0.00000 3.93700
							}
						}
						End Site
						{
							OFFSET 3.93700 0.00000 0.00000
						}
					}
				}
			}
		}
		JOINT RightShoulder
		{
			OFFSET 0.00000 8.20478 0.00000
			CHANNELS 3 Xrotation Yrotation Zrotation
			JOINT RightArm
			{
				OFFSET -6.63596 0.00000 0.00000
				CHANNELS 3 Xrotation Yrotation Zrotation
				JOINT RightForeArm
				{
					OFFSET -10.27422 0.00000 0.00000
					CHANNELS 3 Yrotation Zrotation Xrotation
					JOINT RightHand
					{
						OFFSET -8.52215 0.00000 0.00000
						CHANNELS 3 Xrotation Yrotation Zrotation
						JOINT RightHandThumb1
						{
							OFFSET 0.00000 0.00000 0.00000
							CHANNELS 3 Xrotation Zrotation Yrotation
							End Site
							{
								OFFSET 0.00000 0.00000 3.93700
							}
						}
						End Site
						{
							OFFSET -3.93700 0.00000 0.00000
						}
					}
				}
			}
		}
	}
	JOINT LeftUpLeg
	{
		OFFSET 3.00056 0.00000 0.00000
		CHANNELS 3 Xrotation Yrotation Zrotation
		JOINT LeftLeg
		{
			OFFSET 0.00000 -16.49085 0.00000
			CHANNELS 3 Xrotation Yrotation Zrotation
			JOINT LeftFoot
			{
				OFFSET 0.00000 -14.55658 0.00000
				CHANNELS 3 Xrotation Yrotation Zrotation
				JOINT LeftToeBase
				{
					OFFSET 0.00000 -1.25038 4.66650
					CHANNELS 3 Xrotation Yrotation Zrotation
					End Site
					{
						OFFSET 0.00000 0.00000 2.95275
					}
				}
			}
		}
	}
	JOINT RightUpLeg
	{
		OFFSET -3.00056 0.00000 0.00000
		CHANNELS 3 Xrotation Yrotation Zrotation
		JOINT RightLeg
		{
			OFFSET 0.00000 -16.49085 0.00000
			CHANNELS 3 Xrotation Yrotation Zrotation
			JOINT RightFoot
			{
				OFFSET 0.00000 -14.55658 0.00000
				CHANNELS 3 Xrotation Yrotation Zrotation
				JOINT RightToeBase
				{
					OFFSET 0.00000 -1.25038 4.66650
					CHANNELS 3 Xrotation Yrotation Zrotation
					End Site
					{
						OFFSET 0.00000 0.00000 2.95275
					}
				}
			}
		}
	}
}
MOTION
Frames: 13
Frame Time: 0.008333
 -6.3654 32.8632 -3.9400 11.2532 4.0671 -2.2508 -9.9346 4.9692 -0.5574 -22.0824 -11.5449 12.7055 7.9713 21.3968 30.1158 -28.1538 -1.4930 -24.8360 -13.8071 -0.0000 12.9723 3.6204 26.5394 -8.0599 33.1476 -0.0000 26.2537 -23.5084 -9.4640 -39.2895 -2.4703 -20.5111 31.0539 17.0851 -0.0000 32.2825 2.8145 -13.4112 11.9675 32.8623 0.0000 -24.3270 -5.2483 5.3997 5.5374 -2.0308 0.0000 -0.0000 -7.7886 13.7268 -13.0354 11.4472 0.0000 -0.0000 -6.6955 -11.2446 -1.6935 0.9500 0.0000 -0.0000 -7.4051 0.8891 -13.7758 -0.4506 0.0000 0.0000
 -6.3660 32.8640 -3.9417 11.2558 4.0641 -2.2577 -9.9403 4.9677 -0.5549 -22.0538 -11.6153 12.7209 7.9838 21.4088 30.1117 -28.1617 -1.5020 -24.8591 -13.8042 -0.0000 13.0157 3.5752 26.5986 -7.9442 33.1476 -0.0000 26.2537 -23.5066 -9.4651 -39.2755 -2.4945 -20.5224 31.0553 17.1105 -0.0000 32.3280 2.8218 -13.4353 11.9772 32.8623 0.0000 -24.3270 -5.2517 5.3775 5.5464 -2.0311 0.0000 -0.0000 -7.8152 13.8068 -13.1883 11.6750 0.0000 0.0000 -6.7180 -11.2738 -1.6858 0.9820 -0.0000 0.0000 -7.3971 0.9128 -13.7949 -0.4700 0.0000 0.0000
 -6.3669 32.8636 -3.9431 11.2507 4.0610 -2.2541 -9.9342 4.9634 -0.5661 -22.0221 -11.6701 12.7367 7.9684 21.3909 30.1155 -28.1659 -1.4698 -24.8573 -13.8213 -0.0000 12.9705 3.5898 26.5494 -7.9898 33.1476 -0.0000 26.2537 -23.5218 -9.4804 -39.2271 -2.4942 -20.4354 31.0095 17.0027 -0.0000 32.2824 2.6879 -12.7991 11.9649 32.8623 0.0000 -24.3270 -5.2489 5.3844 5.5455 -2.0304 0.0000 -0.0000 -7.8187 13.8023 -13.1803 11.6900 0.0000 -0.0000 -6.7043 -11.2487 -1.6879 0.9614 0.0000 -0.0000 -7.3966 0.9053 -13.7745 -0.4568 0.0000 -0.0000
 -6.3671 32.8634 -3.9430 11.2421 4.0625 -2.2537 -9.9268 4.9687 -0.5697 -22.0047 -11.7531 12.7410 7.9582 21.3845 30.1172 -28.1692 -1.4743 -24.8770 -13.8173 -0.0000 12.9560 3.5581 26.5627 -7.9163 33.1476 -0.0000 26.2537 -23.5280 -9.5050 -39.2257 -2.4836 -20.3807 31.0208 16.9874 -0.0000 32.2701 2.6834 -12.7553 11.9849 32.8623 0.0000 -24.3270 -5.2398 5.3990 5.5431 -2.0375 0.0000 -0.0000 -7.8030 13.7688 -13.0982 11.5545 -0.0000 0.0000 -6.6915 -11.2599 -1.6847 0.9471 0.0000 0.0000 -7.4159 0.9221 -13.6667 -0.3410 -0.0000 0.0000
 -6.3664 32.8634 -3.9437 11.2369 4.0618 -2.2512 -9.9200 4.9724 -0.5723 -21.9942 -11.8294 12.7447 7.9643 21.3789 30.1093 -28.2052 -1.4374 -24.8930 -13.8497 -0.0000 12.9916 3.5533 26.5848 -7.8996 33.1476 -0.0000 26.2537 -23.5289 -9.5065 -39.2188 -2.4726 -20.3768 31.0304 17.0081 -0.0000 32.2795 2.6822 -12.7773 11.9600 32.8623 0.0000 -24.3270 -5.2324 5.3928 5.5406 -2.0403 0.0000 0.0000 -7.8130 13.7974 -13.1744 11.6835 -0.0000 -0.0000 -6.6889 -11.2705 -1.6887 0.9492 -0.0000 -0.0000 -7.4313 0.9349 -13.6162 -0.3173 0.0000 -0.0000
 -6.3660 32.8638 -3.9458 11.2351 4.0647 -2.2536 -9.9081 4.9682 -0.5674 -22.0039 -11.9136 12.7439 7.9650 21.3885 30.1021 -28.2086 -1.4286 -24.9265 -13.8680 -0.0000 12.9206 3.4940 26.6064 -7.7633 33.1476 -0.0000 26.2537 -23.5467 -9.5084 -39.2004 -2.4846 -20.3851 31.0206 17.0488 -0.0000 32.3299 2.6753 -12.7808 11.9270 32.8623 0.0000 -24.3270 -5.2355 5.3955 5.5401 -2.0443 0.0000 0.0000 -7.7906 13.7636 -13.0840 11.5720 -0.0000 -0.0000 -6.7073 -11.2908 -1.6898 0.9870 0.0000 -0.0000 -7.4066 0.9338 -13.8055 -0.4382 0.0000 0.0000
 -6.3665 32.8638 -3.9479 11.2367 4.0667 -2.2566 -9.9004 4.9592 -0.5674 -22.0179 -11.9991 12.7597 7.9688 21.3859 30.1014 -28.1815 -1.4270 -24.9447 -13.8404 -0.0000 12.8535 3.4470 26.6034 -7.6609 33.1476 -0.0000 26.2537 -23.5435 -9.5082 -39.1884 -2.4984 -20.4033 31.0352 17.0819 -0.0000 32.3511 2.6630 -12.8043 11.8525 32.8623 0.0000 -24.3270 -5.2413 5.3919 5.5440 -2.0458 -0.0000 -0.0000 -7.7837 13.7608 -13.0829 11.5737 -0.0000 0.0000 -6.7124 -11.2892 -1.6859 0.9840 0.0000 0.0000 -7.4329 0.9366 -13.6394 -0.2995 -0.0000 -0.0000
 -6.3667 32.8635 -3.9509 11.2280 4.0710 -2.2462 -9.8678 4.9544 -0.5862 -22.0548 -12.1032 12.7784 7.9329 21.3741 30.1183 -28.1787 -1.3837 -24.9784 -13.8689 -0.0000 12.8690 3.4278 26.6051 -7.6180 33.1476 -0.0000 26.2537 -23.5619 -9.5125 -39.1779 -2.4854 -20.3963 31.0570 17.1041 -0.0000 32.3464 2.6628 -12.8319 11.8273 32.8623 0.0000 -24.3270 -5.2358 5.3846 5.5330 -2.0465 0.0000 -0.0000 -7.7663 13.7495 -13.0351 11.4707 0.0000 -0.0000 -6.7027 -11.2476 -1.6972 0.9741 -0.0000 0.0000 -7.3968 0.8911 -13.7916 -0.4532 0.0000 -0.0000
 -6.3667 32.8640 -3.9534 11.2260 4.0742 -2.2437 -9.8476 4.9500 -0.5871 -22.1074 -12.2037 12.7784 7.9300 21.3642 30.1012 -28.1875 -1.3536 -24.9924 -13.8659 -0.0000 12.8697 3.4155 26.5985 -7.5927 33.1476 -0.0000 26.2537 -23.5666 -9.5169 -39.1777 -2.4644 -20.3817 31.0886 17.0994 -0.0000 32.2768 2.6456 -12.8732 11.7169 32.8623 0.0000 -24.3270 -5.2373 5.3790 5.5302 -2.0488 -0.0000 0.0000 -7.7650 13.7723 -13.1016 11.5365 0.0000 -0.0000 -6.7156 -11.2621 -1.7020 0.9936 0.0000 0.0000 -7.4015 0.9049 -13.8089 -0.4587 0.0000 0.0000
 -6.3672 32.8646 -3.9572 11.2273 4.0856 -2.2461 -9.8295 4.9254 -0.5877 -22.1558 -12.2882 12.8051 7.9335 21.3786 30.0958 -28.2029 -1.3240 -25.0301 -13.8642 -0.0000 12.8947 3.4000 26.6071 -7.5564 33.1476 -0.0000 26.2537 -23.5534 -9.5201 -39.1522 -2.5069 -20.3904 31.0854 17.0935 -0.0000 32.2661 2.6367 -12.8099 11.7337 32.8623 0.0000 -24.3270 -5.2488 5.3724 5.5325 -2.0459 0.0000 -0.0000 -7.7674 13.7733 -13.0950 11.6094 0.0000 0.0000 -6.7265 -11.2636 -1.7006 1.0003 0.0000 -0.0000 -7.4453 0.9049 -13.6140 -0.2677 -0.0000 0.0000
 -6.3668 32.8650 -3.9612 11.2288 4.0947 -2.2476 -9.8054 4.9182 -0.5860 -22.2184 -12.3792 12.8193 7.9170 21.3722 30.0829 -28.1960 -1.3225 -25.0536 -13.8315 -0.0000 12.8882 3.3817 26.6302 -7.5100 33.1476 -0.0000 26.2537 -23.5785 -9.5149 -39.1531 -2.4076 -20.3572 31.1160 17.1010 -0.0000 32.1074 2.6129 -12.7193 11.7097 32.8623 0.0000 -24.3270 -5.2607 5.3647 5.5334 -2.0372 -0.0000 -0.0000 -7.7751 13.7898 -13.1887 11.7184 -0.0000 0.0000 -6.7365 -11.2755 -1.7016 1.0051 -0.0000 -0.0000 -7.4411 0.9126 -13.6284 -0.2507 0.0000 -0.0000
 -6.3674 32.8654 -3.9659 11.2376 4.1001 -2.2491 -9.7892 4.9111 -0.5858 -22.2910 -12.4554 12.8440 7.9132 21.3907 30.0911 -28.2196 -1.2857 -25.1130 -13.8566 -0.0000 12.8290 3.4230 26.5424 -7.6240 33.1476 -0.0000 26.2537 -23.5694 -9.5246 -39.1281 -2.4937 -20.3833 31.1017 17.0822 -0.0000 32.1973 2.6126 -12.7297 11.6996 32.8623 0.0000 -24.3270 -5.2784 5.3680 5.5320 -2.0430 -0.0000 -0.0000 -7.7428 13.7672 -13.1127 11.5981 -0.0000 -0.0000 -6.7579 -11.2631 -1.7026 1.0175 0.0000 0.0000 -7.4350 0.8948 -13.6390 -0.2648 -0.0000 -0.0000
 -6.3675 32.8659 -3.9705 11.2484 4.1126 -2.2468 -9.7789 4.8896 -0.5922 -22.3566 -12.5219 12.8701 7.9514 21.4218 30.0808 -28.2566 -1.2609 -25.1579 -13.8424 -0.0000 12.8558 3.4072 26.5802 -7.5791 33.1476 -0.0000 26.2537 -23.5825 -9.5045 -39.1134 -2.4818 -20.3933 31.1099 17.0814 -0.0000 32.2058 2.6070 -12.6905 11.7094 32.8623 0.0000 -24.3270 -5.3029 5.3671 5.5272 -2.0342 0.0000 0.0000 -7.7360 13.7466 -13.1028 11.5512 -0.0000 -0.0000 -6.7796 -11.2791 -1.7085 1.0259 -0.0000 0.0000 -7.4522 0.8974 -13.6111 -0.1867 0.0000 -0.0000
